<mxfile host="app.diagrams.net" modified="2023-04-26T08:55:39.111Z" agent="Mozilla/5.0 (Windows NT 10.0; Win64; x64) AppleWebKit/537.36 (KHTML, like Gecko) Chrome/112.0.0.0 Safari/537.36" etag="k6zRaLCW0yX10etw_YxC" version="21.2.2" type="onedrive">
  <diagram name="Pagina-1" id="2AEJ7RwiLtGEjEzRK3uE">
    <mxGraphModel grid="1" page="1" gridSize="10" guides="1" tooltips="1" connect="1" arrows="1" fold="1" pageScale="1" pageWidth="827" pageHeight="1169" math="0" shadow="0">
      <root>
        <mxCell id="0" />
        <mxCell id="1" parent="0" />
        <mxCell id="wV7gt9_4p3TEbD4Ag00--1" value="" style="rounded=0;whiteSpace=wrap;html=1;" vertex="1" parent="1">
          <mxGeometry x="40" y="680" width="720" height="450" as="geometry" />
        </mxCell>
        <mxCell id="wV7gt9_4p3TEbD4Ag00--2" value="" style="rounded=0;whiteSpace=wrap;html=1;fillColor=#000000;" vertex="1" parent="1">
          <mxGeometry x="40" y="680" width="720" height="60" as="geometry" />
        </mxCell>
        <mxCell id="wV7gt9_4p3TEbD4Ag00--3" value="logo IL NOSTRO SITO" style="text;html=1;strokeColor=none;fillColor=none;align=center;verticalAlign=middle;whiteSpace=wrap;rounded=0;fontColor=#FFFFFF;fontSize=19;fontStyle=0;fontFamily=Verdana;" vertex="1" parent="1">
          <mxGeometry x="50" y="687.5" width="220" height="45" as="geometry" />
        </mxCell>
        <mxCell id="wV7gt9_4p3TEbD4Ag00--4" value="Home Catalogo Login" style="text;html=1;strokeColor=none;fillColor=none;align=center;verticalAlign=middle;whiteSpace=wrap;rounded=0;fontColor=#FFFFFF;fontSize=14;" vertex="1" parent="1">
          <mxGeometry x="570" y="702.5" width="180" height="30" as="geometry" />
        </mxCell>
        <mxCell id="wV7gt9_4p3TEbD4Ag00--5" value="&#xa;&#xa;&#xa;" style="rounded=0;whiteSpace=wrap;html=1;fillColor=#000000;" vertex="1" parent="1">
          <mxGeometry x="40" y="1070" width="720" height="60" as="geometry" />
        </mxCell>
        <mxCell id="wV7gt9_4p3TEbD4Ag00--6" value="Tutti i diritti sno riservati al IL NOSTRO SITO" style="text;html=1;strokeColor=none;fillColor=none;align=center;verticalAlign=middle;whiteSpace=wrap;rounded=0;fontColor=#FFFFFF;" vertex="1" parent="1">
          <mxGeometry x="40" y="1100" width="270" height="30" as="geometry" />
        </mxCell>
        <mxCell id="wV7gt9_4p3TEbD4Ag00--7" value="Contattaci&lt;br&gt;&amp;nbsp; &amp;nbsp; &amp;nbsp; &amp;nbsp; &amp;nbsp; +39 123456" style="text;html=1;strokeColor=none;fillColor=none;align=center;verticalAlign=middle;whiteSpace=wrap;rounded=0;fontColor=#FFFFFF;" vertex="1" parent="1">
          <mxGeometry x="650" y="1070" width="100" height="60" as="geometry" />
        </mxCell>
        <mxCell id="wV7gt9_4p3TEbD4Ag00--8" value="" style="shape=mxgraph.signs.tech.telephone_3;html=1;pointerEvents=1;fillColor=#FFFFFF;strokeColor=none;verticalLabelPosition=bottom;verticalAlign=top;align=center;sketch=0;fontColor=#FFFFFF;" vertex="1" parent="1">
          <mxGeometry x="670" y="1100" width="10" height="10" as="geometry" />
        </mxCell>
        <mxCell id="wV7gt9_4p3TEbD4Ag00--9" style="edgeStyle=orthogonalEdgeStyle;rounded=0;orthogonalLoop=1;jettySize=auto;html=1;exitX=0.5;exitY=1;exitDx=0;exitDy=0;" edge="1" parent="1" source="wV7gt9_4p3TEbD4Ag00--1" target="wV7gt9_4p3TEbD4Ag00--1">
          <mxGeometry relative="1" as="geometry" />
        </mxCell>
        <mxCell id="wV7gt9_4p3TEbD4Ag00--10" value="Coupon utilizzati" style="text;html=1;strokeColor=none;fillColor=none;align=center;verticalAlign=middle;whiteSpace=wrap;rounded=0;fontSize=24;fontStyle=1" vertex="1" parent="1">
          <mxGeometry x="250" y="760" width="300" height="30" as="geometry" />
        </mxCell>
        <mxCell id="wV7gt9_4p3TEbD4Ag00--24" value="" style="rounded=0;whiteSpace=wrap;html=1;" vertex="1" parent="1">
          <mxGeometry x="130" y="800" width="90" height="120" as="geometry" />
        </mxCell>
        <mxCell id="wV7gt9_4p3TEbD4Ag00--26" value="" style="whiteSpace=wrap;html=1;aspect=fixed;" vertex="1" parent="1">
          <mxGeometry x="150" y="810" width="50" height="50" as="geometry" />
        </mxCell>
        <mxCell id="wV7gt9_4p3TEbD4Ag00--27" value="NIKE&lt;br&gt;nome offerta" style="text;html=1;strokeColor=none;fillColor=none;align=center;verticalAlign=middle;whiteSpace=wrap;rounded=0;" vertex="1" parent="1">
          <mxGeometry x="140" y="870" width="70" height="30" as="geometry" />
        </mxCell>
        <mxCell id="wV7gt9_4p3TEbD4Ag00--28" value="" style="rounded=0;whiteSpace=wrap;html=1;" vertex="1" parent="1">
          <mxGeometry x="260" y="800" width="90" height="120" as="geometry" />
        </mxCell>
        <mxCell id="wV7gt9_4p3TEbD4Ag00--30" value="" style="whiteSpace=wrap;html=1;aspect=fixed;" vertex="1" parent="1">
          <mxGeometry x="280" y="810" width="50" height="50" as="geometry" />
        </mxCell>
        <mxCell id="wV7gt9_4p3TEbD4Ag00--31" value="ADIDAS&lt;br&gt;nome offerta" style="text;html=1;strokeColor=none;fillColor=none;align=center;verticalAlign=middle;whiteSpace=wrap;rounded=0;" vertex="1" parent="1">
          <mxGeometry x="270" y="870" width="70" height="30" as="geometry" />
        </mxCell>
        <mxCell id="wV7gt9_4p3TEbD4Ag00--32" value="" style="line;strokeWidth=2;html=1;perimeter=backbonePerimeter;points=[];outlineConnect=0;dashed=1;dashPattern=1 1;" vertex="1" parent="1">
          <mxGeometry x="420" y="840" width="160" height="10" as="geometry" />
        </mxCell>
      </root>
    </mxGraphModel>
  </diagram>
</mxfile>
